<svg width="162" height="37" xmlns="http://www.w3.org/2000/svg">
<g fill-rule="nonzero" fill="none"><path d="M128.662 22.712a2.093 2.093 0 0 0-1.395.492c-.38.311-.59.748-.581 1.203-.015.462.188.91.562 1.236.374.327.886.505 1.414.491.52.008 1.02-.176 1.376-.508.366-.324.569-.763.561-1.22a1.577 1.577 0 0 0-.561-1.202 2.068 2.068 0 0 0-1.376-.492zm6.195-15.663a1.267 1.267 0 0 0-.832.276.913.913 0 0 0-.329.744v16.504a.922.922 0 0 0 .329.728c.22.193.521.297.832.288.319.016.63-.089.853-.287a.953.953 0 0 0 .315-.729V8.065a.875.875 0 0 0-.313-.747 1.167 1.167 0 0 0-.855-.269zm1.259-6.636A1.992 1.992 0 0 0 134.857 0a2.066 2.066 0 0 0-1.277.413c-.362.275-.543.657-.543 1.152a1.47 1.47 0 0 0 .503 1.136 1.83 1.83 0 0 0 1.28.458c.485.008.954-.157 1.297-.458.344-.3.533-.71.523-1.136.002-.502-.173-.888-.524-1.152zm23.63 11.082c-.919-1.424-2.265-2.602-3.893-3.405-3.439-1.65-7.602-1.65-11.04 0-1.63.803-2.976 1.98-3.895 3.405-.952 1.478-1.441 3.15-1.416 4.846-.023 1.687.465 3.35 1.416 4.817.919 1.426 2.265 2.604 3.895 3.407 3.439 1.648 7.6 1.648 11.04 0 1.628-.804 2.974-1.982 3.893-3.407.95-1.468 1.44-3.13 1.416-4.817.027-1.699-.46-3.373-1.413-4.853l-.003.007zm-2.015 8.71c-.71 1.13-1.763 2.067-3.041 2.71-2.698 1.31-5.978 1.31-8.677 0-1.28-.645-2.338-1.582-3.06-2.71a6.935 6.935 0 0 1-1.124-3.864 6.93 6.93 0 0 1 1.124-3.863c2.397-3.57 7.63-4.786 11.737-2.728 1.276.653 2.327 1.595 3.041 2.728a7.016 7.016 0 0 1 1.102 3.863 7.02 7.02 0 0 1-1.098 3.856l-.004.007z" fill="#90FFE9"/><path d="M13.827 7.826a11.213 11.213 0 0 0-4.326-.811 10.056 10.056 0 0 0-4.88 1.187c-1.45.788-2.627 1.91-3.4 3.246C.406 12.824 0 14.368 0 16.078c-.023 1.61.43 3.198 1.312 4.61.84 1.357 2.087 2.486 3.604 3.266a11.02 11.02 0 0 0 5.138 1.187 11.83 11.83 0 0 0 3.697-.569 9.507 9.507 0 0 0 3.032-1.61.707.707 0 0 0 .3-.584.88.88 0 0 0-.369-.715.972.972 0 0 0-.665-.227c-.294 0-.574.105-.777.292-1.309 1.062-3.046 1.593-5.212 1.592a8.543 8.543 0 0 1-4.066-.942c-1.18-.624-2.139-1.524-2.772-2.599a7.028 7.028 0 0 1-.998-3.702 7.656 7.656 0 0 1 .9-3.736c1.138-2.183 3.644-3.563 6.376-3.508 2.44 0 4.449.823 6.026 2.47.193.245.51.39.85.389a.953.953 0 0 0 .592-.196c.315-.13.517-.407.518-.713a.97.97 0 0 0-.26-.553 9.404 9.404 0 0 0-3.4-2.404zm89.974.07a12.052 12.052 0 0 0-5.42-1.2c-2.022 0-3.861.403-5.47 1.199-1.597.782-2.911 1.943-3.794 3.35-.892 1.41-1.351 3.035-1.351 4.832 0 1.776.45 3.392 1.351 4.801.883 1.408 2.197 2.569 3.795 3.351 1.605.792 3.453 1.2 5.468 1.2 2.016 0 3.86-.405 5.456-1.2 1.588-.787 2.894-1.947 3.773-3.35.892-1.411 1.352-3.027 1.352-4.802 0-1.795-.46-3.424-1.365-4.835-.89-1.401-2.203-2.56-3.795-3.346zm-.889 10.74a4.49 4.49 0 0 1-1.835 1.704 6.21 6.21 0 0 1-5.393 0 4.606 4.606 0 0 1-1.856-1.715 4.776 4.776 0 0 1-.685-2.552 4.869 4.869 0 0 1 .686-2.57 4.606 4.606 0 0 1 1.855-1.723 6.21 6.21 0 0 1 5.393 0 4.47 4.47 0 0 1 1.834 1.715c.459.798.69 1.683.672 2.577.02.89-.21 1.77-.67 2.563zm20.956-1.445a4.48 4.48 0 0 0-1.078-1.408 5.818 5.818 0 0 0-1.501-.937 15.578 15.578 0 0 0-1.612-.59 35.469 35.469 0 0 0-1.567-.45c-.43-.11-.85-.247-1.257-.408a2.586 2.586 0 0 1-.757-.462.569.569 0 0 1-.19-.451.969.969 0 0 1 .39-.834c.282-.217.76-.326 1.419-.326.361-.007.72.038 1.066.132.309.091.609.205.896.34.287.132.542.258.77.366.282.145.603.224.93.23.324.01.643-.074.909-.238.227-.153.419-.342.564-.558l1.328-2.176-.349-.282a6.957 6.957 0 0 0-1.25-.801 9.78 9.78 0 0 0-1.47-.595 10.642 10.642 0 0 0-1.652-.376 12.526 12.526 0 0 0-1.781-.125 9.139 9.139 0 0 0-2.967.45c-.83.272-1.59.685-2.24 1.215a5.286 5.286 0 0 0-1.391 1.753 4.631 4.631 0 0 0-.473 2.02c-.02.73.117 1.457.405 2.142.244.554.61 1.06 1.077 1.489.435.39.943.714 1.501.955.522.225 1.062.417 1.616.573.53.149 1.051.286 1.557.407.424.101.839.231 1.24.39.28.107.533.265.74.464.15.166.225.374.21.586 0 .494-.138.832-.425 1.031-.325.227-.817.342-1.46.342a4.146 4.146 0 0 1-1.293-.18 6.985 6.985 0 0 1-1.042-.435c-.327-.171-.623-.33-.88-.47a2.284 2.284 0 0 0-1.102-.296c-.303-.001-.6.07-.86.205-.237.12-.442.281-.6.475l-1.567 2.176.347.305c.427.37.903.693 1.417.963.54.284 1.107.527 1.694.726.603.204 1.225.362 1.859.472.627.11 1.265.167 1.904.169a9.63 9.63 0 0 0 3.072-.46 6.91 6.91 0 0 0 2.323-1.284 5.588 5.588 0 0 0 1.448-1.923 5.634 5.634 0 0 0 .492-2.338 4.44 4.44 0 0 0-.41-1.973zm-92.02-9.44h-.014c-.02-.455-.312-.77-.9-.77h-1.4c-3.925.015-8.541 2.428-8.541 6.597v10.385c.01.396.286.75.703.9.416.152.895.072 1.22-.202a.914.914 0 0 0 .3-.698v-9.867a4.706 4.706 0 0 1 .815-2.697c.538-.798 1.318-1.45 2.252-1.883a7.6 7.6 0 0 1 3.3-.683h2.265V7.75zm14.324.384a10.195 10.195 0 0 0-4.823-1.12c-1.85 0-3.495.384-4.936 1.153-1.444.77-2.61 1.886-3.364 3.215-.8 1.375-1.201 2.94-1.201 4.694 0 1.732.431 3.285 1.293 4.66.826 1.343 2.061 2.457 3.568 3.217 1.515.768 3.247 1.152 5.194 1.153a11.796 11.796 0 0 0 3.641-.618 10.97 10.97 0 0 0 2.336-1.04l.021-.015c.255-.155.499-.324.729-.505l.01-.011.975-.68-.739-.816c-.326-.334-.761-.417-1.201-.11l-.41.285c-.052.029-.102.06-.15.093a5.067 5.067 0 0 1-.132.103l-.368.257a7.407 7.407 0 0 1-1.811.791c-.934.286-1.914.434-2.903.438a8.757 8.757 0 0 1-3.881-.844c-1.148-.553-2.105-1.367-2.774-2.355a6.624 6.624 0 0 1-1.146-3.43l.038-1.689c.247-1.833 1.031-3.312 2.351-4.438s2.94-1.69 4.86-1.69c1.995 0 3.646.563 4.955 1.69 1.308 1.126 2.047 2.61 2.218 4.45h-5.023c-.533 0-.8.286-.819.703h-.007v.988h6.92c.284.011.563-.077.776-.244a.818.818 0 0 0 .3-.66c0-1.688-.395-3.193-1.183-4.514-.751-1.29-1.9-2.368-3.314-3.111zm34.587 13.64c-.883-.791-1.324-1.814-1.324-3.067V9.58h4.104c.552 0 .832-.298.85-.732V7.822h-4.954v-5.29c0-.09-.01-.178-.03-.264v-.019c0-.54-.377-.813-.925-.831v-.005h-1.3v17.295a5.884 5.884 0 0 0 .88 3.2c.577.927 1.434 1.697 2.477 2.224.963.484 2.044.759 3.153.8v.01h1.502c.623 0 .937-.338.96-.826v-1.153H84.09c-1.355-.021-2.465-.417-3.33-1.188zM68.853 8.168c-3.28-1.582-7.254-1.582-10.535 0-1.554.77-2.839 1.898-3.715 3.264-.91 1.416-1.376 3.019-1.351 4.645-.022 1.615.444 3.206 1.351 4.611.876 1.366 2.16 2.496 3.715 3.266a11.634 11.634 0 0 0 5.286 1.187c1.652.02 3.285-.32 4.75-.99 1.373-.624 2.528-1.56 3.346-2.712v2.58c0 .538.377.81.922.828v.006h1.296v-8.776c.023-1.626-.443-3.228-1.351-4.645-.877-1.365-2.161-2.493-3.714-3.264zm1.793 11.61c-.678 1.083-1.682 1.982-2.901 2.599-2.575 1.256-5.706 1.256-8.281 0-1.223-.62-2.232-1.517-2.92-2.6a6.664 6.664 0 0 1-1.073-3.701 6.669 6.669 0 0 1 1.072-3.704c2.288-3.42 7.283-4.587 11.202-2.614 1.218.625 2.22 1.529 2.901 2.614a6.751 6.751 0 0 1 1.051 3.704 6.747 6.747 0 0 1-1.05 3.703v-.001zM2.405 31.744h1.733v3.793h.522v-3.793h1.733v-.386H2.405v.386zm6.914.631a2.148 2.148 0 0 0-.825.15c-.231.093-.426.24-.562.423v-1.837h-.497v4.426h.501v-1.646a1.04 1.04 0 0 1 .348-.832c.252-.21.596-.32.948-.307.306-.016.605.077.824.258a.941.941 0 0 1 .289.746v1.777h.501v-1.815c0-.438-.138-.77-.413-.999a1.69 1.69 0 0 0-1.114-.344zm5.574.204c-.281-.137-.6-.208-.924-.204a2.086 2.086 0 0 0-.927.204c-.274.134-.498.33-.647.566-.161.253-.242.536-.236.824-.005.288.08.572.246.823.162.24.4.438.687.57a2.586 2.586 0 0 0 1.823.075c.24-.085.452-.217.617-.386l-.282-.274a1.397 1.397 0 0 1-.5.306c-.2.071-.416.107-.634.105a1.648 1.648 0 0 1-1.015-.302 1.06 1.06 0 0 1-.44-.786h3.1v-.129c.011-.289-.066-.576-.223-.832a1.584 1.584 0 0 0-.64-.56h-.005zm-2.231 1.203c.02-.287.167-.556.412-.754a1.558 1.558 0 0 1 1.803 0c.246.198.394.467.414.754h-2.63zm7.421-.885c.221-.104.47-.157.723-.154.21 0 .419.04.608.118.19.078.35.198.465.348l.374-.215c-.142-.199-.349-.36-.596-.462a2.19 2.19 0 0 0-.855-.158 2.295 2.295 0 0 0-.983.203c-.285.132-.52.328-.681.567a1.505 1.505 0 0 0 0 1.65c.16.24.396.437.68.57.302.137.641.207.984.203.295.003.586-.05.852-.159.249-.101.457-.262.599-.463l-.374-.215c-.113.15-.275.27-.465.346-.19.077-.397.116-.608.115a1.669 1.669 0 0 1-.723-.153c-.211-.1-.385-.25-.5-.43a1.23 1.23 0 0 1 0-1.279c.115-.181.29-.33.502-.431l-.002-.001zm3.95.115v-.615h-.478v3.139h.503v-1.597c-.023-.31.096-.615.331-.853.238-.209.57-.32.912-.305l.12.006v-.412a2.064 2.064 0 0 0-.863.161c-.23.106-.414.272-.524.474v.002zm4.933-.435a2.05 2.05 0 0 0-.922-.203 2.074 2.074 0 0 0-.927.203c-.274.135-.499.33-.649.567-.16.253-.24.536-.236.823-.005.288.08.573.247.824.162.24.4.437.686.57a2.586 2.586 0 0 0 1.824.074c.24-.083.452-.216.617-.386l-.281-.274c-.138.133-.31.238-.502.307-.2.07-.416.107-.633.105a1.648 1.648 0 0 1-1.015-.302 1.066 1.066 0 0 1-.444-.79h3.101l.008-.13a1.491 1.491 0 0 0-.233-.825 1.583 1.583 0 0 0-.641-.561v-.002zm-2.234 1.205c.02-.286.168-.556.412-.754a1.558 1.558 0 0 1 1.804 0c.245.198.393.467.413.754h-2.629zm5.636-1.408c-.282 0-.563.037-.831.11a2.133 2.133 0 0 0-.676.314l.226.316c.163-.12.352-.212.556-.271.217-.066.446-.1.677-.1.283-.016.563.06.782.213a.741.741 0 0 1 .267.617v.19h-1.176c-.498 0-.861.083-1.09.245a.757.757 0 0 0-.341.644c-.009.257.127.503.366.662.285.179.634.267.988.251.268.006.535-.041.778-.137.208-.084.38-.218.497-.386v.489h.478v-1.938c0-.402-.129-.705-.387-.91-.258-.205-.63-.308-1.114-.308zm1.001 2.22a1.025 1.025 0 0 1-.455.473 1.49 1.49 0 0 1-.725.165 1.28 1.28 0 0 1-.692-.158.49.49 0 0 1-.246-.433c0-.374.317-.561.952-.56h1.162l.004.513zm3.703.566c-.097.029-.2.043-.303.043a.697.697 0 0 1-.476-.147.537.537 0 0 1-.164-.426v-1.878h1.126v-.359h-1.126v-.685h-.502v.685h-.659v.36h.662v1.896c-.03.25.074.5.285.677.21.177.505.264.8.237.147 0 .293-.019.433-.057.13-.033.249-.09.35-.164l-.176-.304a.765.765 0 0 1-.25.123zm1.652.376h.5v-3.137h-.5v3.137zm.254-4.427a.39.39 0 0 0-.261.09.267.267 0 0 0-.105.209.275.275 0 0 0 .105.215c.069.058.163.09.26.088a.396.396 0 0 0 .262-.089.283.283 0 0 0 .105-.22.257.257 0 0 0-.106-.207.395.395 0 0 0-.26-.084v-.002zm3.177 3.96l-1.383-2.67h-.52l1.642 3.138h.513l1.649-3.138h-.492l-1.409 2.67zm5.166-2.494a2.05 2.05 0 0 0-.922-.203 2.074 2.074 0 0 0-.927.203c-.274.134-.498.33-.649.566-.16.253-.24.537-.235.824-.006.288.08.572.246.823.163.24.4.437.687.57a2.586 2.586 0 0 0 1.823.075c.24-.084.452-.216.617-.386l-.281-.274c-.138.133-.31.237-.501.306a1.838 1.838 0 0 1-.633.118 1.651 1.651 0 0 1-1.015-.302 1.066 1.066 0 0 1-.443-.79h3.1l.007-.129a1.491 1.491 0 0 0-.232-.826 1.573 1.573 0 0 0-.637-.571l-.005-.004zm-2.229 1.207a1.07 1.07 0 0 1 .414-.754c.242-.193.565-.298.898-.29.337-.01.665.095.911.29.245.198.392.468.412.754h-2.635zm6.862-2.673a.382.382 0 0 0-.26.09.264.264 0 0 0 0 .424.428.428 0 0 0 .522 0 .283.283 0 0 0 .106-.222.262.262 0 0 0-.106-.206.399.399 0 0 0-.262-.084v-.002zm-.252 4.427h.5v-3.137h-.5v3.137zm4.103-3.162a2.09 2.09 0 0 0-.842.158c-.235.1-.431.254-.567.444v-.579h-.48v3.139h.501V33.89a1.04 1.04 0 0 1 .348-.832c.253-.208.597-.317.949-.301.305-.017.604.076.823.257a.941.941 0 0 1 .289.746v1.777h.501v-1.82c0-.438-.138-.77-.413-.999a1.69 1.69 0 0 0-1.112-.344h.003zm6.088.622a1.487 1.487 0 0 0-.595-.462 2.017 2.017 0 0 0-.815-.159 2.195 2.195 0 0 0-.943.2 1.595 1.595 0 0 0-.663.564 1.56 1.56 0 0 0 0 1.658c.154.238.383.435.663.568.288.136.613.206.943.203.29.004.578-.054.836-.167.247-.112.453-.28.596-.484v.62h.478v-4.426h-.5v1.885zm-.173 1.61c-.113.181-.284.33-.492.433a1.7 1.7 0 0 1-1.41 0 1.186 1.186 0 0 1-.493-.432 1.217 1.217 0 0 1 0-1.277c.113-.18.284-.33.493-.432a1.7 1.7 0 0 1 1.41 0c.208.102.379.252.492.432.24.402.24.875 0 1.277zm5.224-.56c.022.306-.1.607-.337.839-.244.207-.58.316-.924.3a1.21 1.21 0 0 1-.824-.257.95.95 0 0 1-.288-.752v-1.777h-.502v1.82c0 .441.14.776.42 1.005.312.24.724.364 1.145.344.275.004.546-.05.789-.158.227-.102.415-.257.542-.446v.573h.479V32.4h-.5v1.647zm4.094-.096a7.412 7.412 0 0 0-.712-.142 6.51 6.51 0 0 1-.563-.105.92.92 0 0 1-.342-.158.346.346 0 0 1-.137-.287.426.426 0 0 1 .243-.376c.219-.107.47-.157.723-.142.388-.01.77.084 1.091.267l.22-.34a2.16 2.16 0 0 0-.592-.21 3.266 3.266 0 0 0-.719-.082 1.979 1.979 0 0 0-1.078.258c-.247.147-.392.388-.388.643a.637.637 0 0 0 .195.494c.126.12.287.209.468.258.239.059.482.106.727.14.183.024.365.057.543.099a.941.941 0 0 1 .337.148.318.318 0 0 1 .135.272c.006.154-.088.3-.244.38-.231.1-.49.144-.75.128-.249 0-.496-.032-.733-.098a2.054 2.054 0 0 1-.584-.257l-.226.333c.191.128.41.222.646.278.278.074.57.111.861.11.395.02.788-.065 1.125-.241.26-.144.413-.391.405-.654a.613.613 0 0 0-.19-.477 1.11 1.11 0 0 0-.458-.239h-.003zm3.414 1.211c-.098.029-.2.043-.304.043a.696.696 0 0 1-.476-.147.533.533 0 0 1-.165-.426v-1.879h1.127v-.359h-1.127v-.685h-.502v.685h-.66v.36h.66v1.896c-.03.25.074.5.285.677.21.177.505.264.8.237.148 0 .294-.02.435-.057.128-.033.247-.09.348-.164l-.177-.304a.761.761 0 0 1-.241.123h-.003zm2.127-2.147v-.615H76.1v3.138h.5V33.94c-.022-.31.096-.615.332-.853.237-.209.57-.32.911-.305l.12.006v-.412a2.064 2.064 0 0 0-.863.161 1.118 1.118 0 0 0-.515.474l-.006.004zm2.861-1.903a.39.39 0 0 0-.261.09.267.267 0 0 0-.105.208.275.275 0 0 0 .105.215c.07.059.163.09.261.089a.396.396 0 0 0 .261-.09.283.283 0 0 0 .105-.22.257.257 0 0 0-.106-.206.394.394 0 0 0-.254-.086h-.006zm-.253 4.426h.5V32.4h-.5v3.138zm4.572-2.96a2.205 2.205 0 0 0-1.85 0c-.273.135-.498.33-.648.567-.16.253-.241.536-.236.823-.005.288.08.573.246.824.162.24.4.437.687.57a2.586 2.586 0 0 0 1.823.074c.24-.084.452-.216.617-.386l-.282-.274a1.383 1.383 0 0 1-.5.307c-.2.07-.416.107-.634.105a1.648 1.648 0 0 1-1.015-.302 1.066 1.066 0 0 1-.444-.79h3.1l.008-.13a1.491 1.491 0 0 0-.233-.825 1.579 1.579 0 0 0-.633-.561l-.006-.002zm-2.228 1.205c.02-.286.167-.556.412-.754a1.558 1.558 0 0 1 1.803 0c.246.198.394.467.414.754H81.53zm6.32.167a7.412 7.412 0 0 0-.712-.143 6.624 6.624 0 0 1-.563-.104.92.92 0 0 1-.342-.158.346.346 0 0 1-.137-.287.426.426 0 0 1 .243-.376c.219-.107.47-.157.722-.143.388-.008.77.085 1.093.268l.217-.34a2.16 2.16 0 0 0-.591-.21 3.257 3.257 0 0 0-.719-.082 1.979 1.979 0 0 0-1.079.258c-.247.146-.392.387-.387.643a.637.637 0 0 0 .194.494c.126.12.288.208.468.257.239.062.481.11.727.147.182.024.364.057.542.1a.93.93 0 0 1 .337.147.318.318 0 0 1 .136.272.418.418 0 0 1-.244.38 1.63 1.63 0 0 1-.75.128c-.249 0-.496-.032-.733-.098a2.045 2.045 0 0 1-.585-.257l-.226.333c.191.128.41.222.646.278.279.074.57.112.863.11.395.02.787-.065 1.123-.241.26-.144.413-.391.405-.654a.613.613 0 0 0-.19-.477 1.106 1.106 0 0 0-.458-.244zm1.945-2.87a.4.4 0 0 0-.268.09.29.29 0 0 0-.106.232.286.286 0 0 0 .071.195.355.355 0 0 0 .19.11l-.248.859h.34l.303-.823a1.76 1.76 0 0 0 .067-.189.51.51 0 0 0 .026-.152.295.295 0 0 0-.106-.229.39.39 0 0 0-.27-.092zm6.397 1.498a2.395 2.395 0 0 0-1.932 0 1.66 1.66 0 0 0-.676.567 1.5 1.5 0 0 0 0 1.647c.16.238.394.435.676.57a2.367 2.367 0 0 0 1.932 0 1.66 1.66 0 0 0 .673-.57 1.516 1.516 0 0 0 0-1.647 1.632 1.632 0 0 0-.673-.565v-.002zm.232 2.028c-.11.181-.28.331-.49.433a1.714 1.714 0 0 1-1.415 0 1.19 1.19 0 0 1-.494-.433 1.224 1.224 0 0 1 0-1.276c.113-.18.284-.33.494-.432a1.714 1.714 0 0 1 1.416 0c.208.101.378.251.49.432.234.402.234.874 0 1.276zm4.876-2.031a2.199 2.199 0 0 0-.945-.2 1.995 1.995 0 0 0-.834.167 1.46 1.46 0 0 0-.596.478v-.622h-.479v4.297h.5v-1.748c.147.197.352.357.596.464.252.107.53.162.813.158a2.17 2.17 0 0 0 .948-.2c.278-.132.506-.328.658-.564a1.56 1.56 0 0 0 0-1.665 1.59 1.59 0 0 0-.66-.564v-.001zm.222 2.031a1.19 1.19 0 0 1-.497.433c-.44.204-.973.204-1.413 0a1.186 1.186 0 0 1-.492-.433 1.155 1.155 0 0 1-.181-.643c-.005-.221.057-.44.18-.636.114-.18.285-.33.493-.432.44-.208.974-.208 1.413 0 .21.102.382.252.497.432.123.196.184.415.18.636.005.224-.056.446-.18.645v-.002zm4.378-2.028a2.046 2.046 0 0 0-.923-.203 2.074 2.074 0 0 0-.927.203c-.273.135-.497.33-.647.567a1.472 1.472 0 0 0-.237.823c-.006.289.08.573.248.824.161.24.4.438.687.57.31.14.658.211 1.01.206.279.003.556-.04.814-.129.24-.084.451-.217.616-.386l-.28-.272a1.409 1.409 0 0 1-.5.307 1.862 1.862 0 0 1-.635.105 1.642 1.642 0 0 1-1.013-.302 1.063 1.063 0 0 1-.446-.79h3.102v-.129a1.491 1.491 0 0 0-.233-.826 1.567 1.567 0 0 0-.636-.566v-.002zm-2.234 1.205a1.07 1.07 0 0 1 .413-.754c.243-.193.565-.298.898-.29.337-.01.665.095.912.29.244.198.391.468.412.754h-2.635zm4.925-.772v-.615h-.48v3.138h.5V33.94c-.022-.31.097-.615.332-.853.238-.209.57-.32.912-.305l.12.006v-.412a2.064 2.064 0 0 0-.863.161c-.23.107-.412.273-.521.474zm3.897-.644c-.283 0-.564.037-.833.111a2.133 2.133 0 0 0-.676.313l.227.316c.163-.12.352-.211.556-.271.217-.066.445-.1.676-.1.283-.016.563.06.782.213a.741.741 0 0 1 .268.618v.19h-1.176c-.499 0-.862.083-1.09.245a.757.757 0 0 0-.342.643c-.009.258.127.504.367.663.285.178.634.267.987.25.269.006.535-.041.778-.137.208-.083.381-.218.497-.386v.489h.479v-1.93c0-.402-.13-.705-.388-.91-.258-.205-.628-.308-1.109-.308l-.003-.009zm1 2.22a1.025 1.025 0 0 1-.456.474 1.49 1.49 0 0 1-.725.164 1.28 1.28 0 0 1-.691-.158.49.49 0 0 1-.246-.432c0-.375.317-.562.95-.561h1.163l.005.513zm3.703.566c-.098.029-.2.043-.304.043a.696.696 0 0 1-.476-.147.533.533 0 0 1-.165-.426v-1.87h1.126v-.359h-1.126v-.685h-.502v.685h-.66v.36h.66v1.896c-.03.25.074.5.285.677.21.177.505.264.8.237.148 0 .294-.02.435-.057.128-.033.247-.09.348-.164l-.176-.304a.763.763 0 0 1-.245.123v-.009zm1.652.376h.5v-3.13h-.5v3.13zm.253-4.426a.39.39 0 0 0-.261.09.267.267 0 0 0-.105.208.275.275 0 0 0 .105.215c.07.059.164.09.261.089a.396.396 0 0 0 .261-.09.283.283 0 0 0 .105-.22.257.257 0 0 0-.106-.206.398.398 0 0 0-.26-.077v-.01zm3.846 1.264a2.09 2.09 0 0 0-.842.159c-.234.1-.43.254-.566.444v-.58h-.48v3.14h.5V33.89a1.04 1.04 0 0 1 .349-.832c.253-.208.596-.317.948-.301.306-.017.605.077.825.257.207.208.31.475.289.746v1.777h.5v-1.82c0-.438-.138-.77-.412-.999-.3-.237-.701-.36-1.11-.344v-.009zm6.165.627c-.15-.199-.36-.36-.608-.466a2.178 2.178 0 0 0-.853-.16c-.33-.005-.657.06-.95.19-.277.123-.508.31-.666.538a1.33 1.33 0 0 0-.243.787c-.006.277.078.55.243.79.158.23.39.419.668.543.292.131.618.198.948.195.289.003.575-.05.835-.156.247-.101.457-.258.607-.453v.399c0 .386-.11.678-.33.862-.221.184-.568.278-1.037.278a2.833 2.833 0 0 1-.807-.113 2.038 2.038 0 0 1-.652-.317l-.247.332c.217.162.473.284.75.355.315.087.644.13.976.13.62 0 1.084-.13 1.391-.387.308-.257.46-.652.456-1.184V32.4h-.48l-.001.594zm-.186 1.485c-.119.174-.294.316-.504.41a1.742 1.742 0 0 1-.731.155c-.251.003-.5-.047-.722-.147a1.196 1.196 0 0 1-.5-.409 1.081 1.081 0 0 1 0-1.193c.118-.173.291-.313.5-.405.223-.098.471-.147.722-.144.254-.004.505.046.73.146.208.093.381.234.5.406.24.37.24.82 0 1.19l.005-.009zm6.422-.537a7.614 7.614 0 0 0-.711-.142 6.51 6.51 0 0 1-.564-.105.92.92 0 0 1-.342-.158.348.348 0 0 1-.138-.287.43.43 0 0 1 .243-.376 1.46 1.46 0 0 1 .723-.142c.388-.01.769.084 1.091.267l.219-.34a2.16 2.16 0 0 0-.591-.21 3.266 3.266 0 0 0-.719-.082 1.979 1.979 0 0 0-1.079.258c-.247.147-.392.388-.387.643a.637.637 0 0 0 .194.494c.126.12.288.21.468.258.239.061.481.11.727.146.182.024.364.057.542.1a.941.941 0 0 1 .337.147c.091.07.14.169.134.272.006.154-.087.3-.243.38-.23.1-.49.145-.75.128-.248.001-.496-.032-.733-.098a2.065 2.065 0 0 1-.585-.257l-.225.333c.19.128.41.223.644.278.28.074.57.112.863.111a2.21 2.21 0 0 0 1.126-.233c.26-.144.413-.391.404-.654a.608.608 0 0 0-.19-.477 1.092 1.092 0 0 0-.458-.245v-.009zm3.039 1.116l-1.395-2.667h-.521l1.659 3.142-.161.309a1.113 1.113 0 0 1-.335.406.777.777 0 0 1-.434.119 1.017 1.017 0 0 1-.676-.238l-.233.316c.115.095.252.169.403.215.16.048.33.072.5.07.254.007.504-.058.71-.184.236-.167.415-.382.522-.626l1.854-3.515h-.494l-1.4 2.653zm4.74-1.116a7.412 7.412 0 0 0-.71-.142 6.624 6.624 0 0 1-.564-.105.943.943 0 0 1-.342-.158.346.346 0 0 1-.137-.287.426.426 0 0 1 .243-.376c.218-.107.47-.157.722-.142.388-.01.77.084 1.092.267l.22-.34a2.152 2.152 0 0 0-.594-.21 3.257 3.257 0 0 0-.718-.082 1.973 1.973 0 0 0-1.078.258c-.246.147-.392.388-.387.643a.636.636 0 0 0 .193.494c.126.12.288.21.47.258.237.061.48.11.724.146.183.024.364.057.543.1a.95.95 0 0 1 .339.147c.09.07.139.17.133.272.009.155-.082.302-.238.385-.232.1-.491.145-.75.128-.25.001-.497-.032-.733-.097a2.045 2.045 0 0 1-.585-.258l-.225.334c.19.127.41.222.644.277.28.075.57.112.863.111a2.2 2.2 0 0 0 1.123-.242c.26-.144.413-.39.406-.653a.613.613 0 0 0-.19-.478 1.108 1.108 0 0 0-.459-.24l-.005-.01zm3.415 1.211c-.098.029-.2.043-.304.043a.697.697 0 0 1-.476-.147.533.533 0 0 1-.165-.426v-1.87h1.127v-.359h-1.118v-.685h-.5v.685h-.663v.36h.663v1.896c-.032.25.073.5.284.677.21.178.505.265.8.237.148 0 .294-.019.434-.057.129-.033.248-.09.35-.164l-.177-.304a.788.788 0 0 1-.25.123l-.005-.009zm3.877-2.582a2.046 2.046 0 0 0-.922-.204 2.074 2.074 0 0 0-.927.204c-.273.134-.497.33-.647.566a1.472 1.472 0 0 0-.237.823c-.005.289.08.573.248.824.162.24.4.438.686.57.31.14.659.211 1.01.206.28.004.557-.04.815-.129.24-.084.45-.216.616-.386l-.274-.264a1.409 1.409 0 0 1-.5.307c-.2.07-.416.107-.633.105a1.648 1.648 0 0 1-1.015-.302 1.061 1.061 0 0 1-.444-.79h3.1v-.129a1.491 1.491 0 0 0-.233-.826 1.568 1.568 0 0 0-.638-.566l-.005-.01zm-2.227 1.212c.02-.287.167-.556.412-.754a1.558 1.558 0 0 1 1.803 0c.245.198.392.468.412.754h-2.627zm10.162-1.068a1.64 1.64 0 0 0-1.095-.34 2.085 2.085 0 0 0-.877.176c-.248.11-.453.28-.588.487a1.105 1.105 0 0 0-.512-.496 1.8 1.8 0 0 0-.806-.167 1.988 1.988 0 0 0-.811.156c-.23.099-.42.252-.549.441v-.574h-.48v3.139h.502V33.89a1.06 1.06 0 0 1 .334-.832c.238-.207.57-.317.912-.301.295-.016.584.078.791.257.201.21.3.477.278.746v1.777h.502v-1.647a1.063 1.063 0 0 1 .331-.832c.238-.208.57-.318.912-.301.293-.015.58.079.785.257.201.21.3.477.278.746v1.777h.5v-1.82c-.006-.441-.141-.775-.407-1.003v-.001z" fill="#223464"/>
</g>
</svg>
