<?xml version="1.0" encoding="UTF-8"?>
<svg width="69px" height="12px" viewBox="0 0 69 12" version="1.1" xmlns="http://www.w3.org/2000/svg" xmlns:xlink="http://www.w3.org/1999/xlink">
    <!-- Generator: Sketch 51.1 (57501) - http://www.bohemiancoding.com/sketch -->
    <title>logo</title>
    <desc>Created with Sketch.</desc>
    <defs></defs>
    <g id="MACBOOK" stroke="none" stroke-width="1" fill="none" fill-rule="evenodd">
        <g id="CONTEXT" transform="translate(-83.000000, -51.000000)" fill-rule="nonzero">
            <g id="fixed-menu">
                <g id="logo" transform="translate(83.000000, 51.000000)">
                    <path d="M55.8034416,10.4270953 C55.5912615,10.4239747 55.3868168,10.5058549 55.2365673,10.6541285 C55.0820195,10.7960123 54.9960775,10.9964569 55.0003697,11.2050179 C54.9937512,11.4177033 55.0762331,11.6236445 55.2282967,11.774107 C55.3803604,11.9245696 55.588493,12.006183 55.8034416,11.9996342 C56.0142218,12.0038812 56.2167994,11.918844 56.360193,11.7659235 C56.5103732,11.6174714 56.5931834,11.4150355 56.5896421,11.2050179 C56.590544,10.9984277 56.5080021,10.8000411 56.3603649,10.6539584 C56.2127277,10.5078757 56.0122301,10.4262029 55.8034416,10.4270953 Z M58.3206331,3.23548427 C58.1957436,3.23263404 58.0746674,3.27815859 57.9832079,3.36235578 C57.8945928,3.45086724 57.846957,3.57172431 57.8516121,3.69622815 L57.8516121,11.2784698 C57.8473604,11.4029059 57.8949361,11.5236104 57.9832079,11.6123422 C58.073185,11.6995987 58.19466,11.7476771 58.3206331,11.7458912 C58.4469616,11.7496187 58.569177,11.7012472 58.6580582,11.6123422 C58.74378,11.5222337 58.7898908,11.4021673 58.7862798,11.2784698 L58.7862798,3.69288943 C58.7954128,3.56636691 58.7485835,3.4421531 58.6579363,3.35246025 C58.567289,3.26276741 58.4417534,3.21643126 58.3138846,3.2254681 L58.3206331,3.23548427 Z M58.830145,0.187229477 C58.6910175,0.0622457125 58.5084791,-0.00473787519 58.3206331,0.000260945803 C58.1298276,-0.0042606339 57.9443009,0.0624932999 57.8009984,0.187229477 C57.6518453,0.321770049 57.5713799,0.515303364 57.581672,0.714747832 C57.5761665,0.908144805 57.6490656,1.09568679 57.7841271,1.23558874 C57.9182435,1.37705013 58.1078968,1.45381867 58.3037618,1.44592834 C58.5008581,1.44959168 58.6909746,1.37373376 58.8303673,1.23580869 C58.9697601,1.09788362 59.0464252,0.909768931 59.0427229,0.714747832 C59.0578345,0.512955157 58.9796551,0.315267022 58.830145,0.177213305 L58.830145,0.187229477 Z M68.4265159,5.27544449 C68.0543005,4.6216244 67.5081437,4.08121806 66.8473663,3.71292177 C65.4514974,2.95193775 63.7588551,2.95193775 62.3629862,3.71292177 C61.7012818,4.08114376 61.1540141,4.62149462 60.7804623,5.27544449 C60.0158168,6.65774218 60.0158168,8.3303107 60.7804623,9.71260838 C61.1540141,10.3665583 61.7012818,10.9069091 62.3629862,11.2751311 C63.7588551,12.0361151 65.4514974,12.0361151 66.8473663,11.2751311 C67.5081437,10.9068348 68.0543005,10.3664285 68.4265159,9.71260838 C69.1911614,8.3303107 69.1911614,6.65774218 68.4265159,5.27544449 Z M67.6099471,9.28191301 C67.3208973,9.80079225 66.8938022,10.2314729 66.3749711,10.527257 C65.2791859,11.1324845 63.9446636,11.1324845 62.8488784,10.527257 C62.3288247,10.2308184 61.8997017,9.8004445 61.6071539,9.28191301 C60.9999328,8.17517832 60.9999328,6.83958434 61.6071539,5.73284965 C62.583103,4.095783 64.7070601,3.53803516 66.3749711,4.48082824 C66.8917839,4.78213261 67.3180786,5.21431111 67.6099471,5.73284965 C68.2038427,6.84289579 68.2038427,8.17186687 67.6099471,9.28191301 Z" id="Shape" fill="#90FFE9"></path>
                    <path d="M6.34119562,3.4051513 C5.72064176,3.13045955 5.04304935,2.99210733 4.35863338,3.00034763 C3.56941855,2.99120953 2.79366459,3.19516063 2.12143011,3.5885239 C1.45514627,3.97912253 0.915126636,4.53703545 0.560844413,5.20081883 C0.179774779,5.91287907 -0.0125416829,6.7027309 0.000634163709,7.50162599 C-0.00942756617,8.30145946 0.197288005,9.09027504 0.600859431,9.79205356 C0.98741711,10.4649635 1.55968987,11.0248058 2.25602608,11.4112682 C2.97044248,11.8086531 3.78575843,12.0120893 4.6132744,11.9994445 C5.19139488,12.0030347 5.76551872,11.9081202 6.30845606,11.7191958 C6.82197987,11.541431 7.29403014,11.269934 7.6980685,10.919968 C7.78791554,10.8479089 7.83871943,10.7410967 7.8363022,10.6293398 C7.83476052,10.4958865 7.7723762,10.369644 7.66532894,10.2833537 C7.58432291,10.2069364 7.47379296,10.165637 7.35975971,10.1691783 C7.22247566,10.1671208 7.09055498,10.2198184 6.99598683,10.3144925 C6.33617282,10.8608741 5.47983325,11.1435207 4.60599894,11.1033406 C3.95046924,11.1150405 3.30440549,10.9533368 2.73984402,10.6362595 C2.19805866,10.3264291 1.7573032,9.87967683 1.46663891,9.34573157 C1.15591725,8.77900455 0.998397474,8.14762968 1.00828507,7.50854571 C0.996596484,6.86807284 1.13972169,6.2336025 1.42662389,5.65406054 C1.94939563,4.57890911 3.09161573,3.89992742 4.336807,3.92413035 C5.40817915,3.90262684 6.42942479,4.35505344 7.10148096,5.14892093 C7.18811246,5.27228926 7.33476188,5.34528757 7.49071795,5.34267311 C7.59116497,5.343783 7.68844031,5.30924257 7.76354762,5.24579702 C7.90399888,5.18139119 7.99513438,5.04803828 8,4.89981098 C7.9892347,4.79838469 7.94750569,4.70216978 7.87995495,4.62302215 C7.47442315,4.10802551 6.94733984,3.69085865 6.34119562,3.4051513 Z M44.806291,3.57947468 C44.10429,3.18858548 43.3108808,2.98885485 42.5062946,3.00047998 C41.6946694,2.98903716 40.8939816,3.18740195 40.1827257,3.57612789 C39.5045256,3.9527401 38.94581,4.51033961 38.5696974,5.18593395 C38.1836851,5.89921141 37.9877675,6.69880297 38.0005914,7.50860632 C37.9880614,8.31346413 38.1852765,9.10785206 38.5730649,9.81454474 C38.9469521,10.4906643 39.5047766,11.0485392 40.1827257,11.4243508 C41.6331315,12.1918831 43.3727226,12.1918831 44.8231285,11.4243508 C45.4969542,11.0454063 46.0518275,10.4881513 46.4260543,9.81454474 C47.1913152,8.36540343 47.1913152,6.63507526 46.4260543,5.18593395 C46.0416666,4.51230435 45.4761335,3.95835996 44.7928211,3.58616826 L44.806291,3.57947468 Z M44.6768259,8.8146195 C44.4770948,9.17625947 44.1733654,9.47826082 43.8000188,9.68643826 C42.9974491,10.1045206 42.0215114,10.1045206 41.2189417,9.68643826 C40.8412545,9.47840727 40.5334991,9.17509286 40.3307474,8.81106106 C40.1049058,8.41011645 39.9912846,7.96200165 40.0005214,7.50867059 C39.9913351,7.05193938 40.1048976,6.6003848 40.3307474,6.1956048 C40.532414,5.82992381 40.8403414,5.52520626 41.2189417,5.31666916 C42.0203603,4.89444361 42.9986002,4.89444361 43.8000188,5.31666916 C44.1755987,5.52381329 44.4799051,5.82762343 44.6768259,6.19204635 C44.896351,6.60000657 45.0070602,7.05179453 44.9994606,7.50867059 C45.0087502,7.96457465 44.8979315,8.41558704 44.6768259,8.82173639 L44.6768259,8.8146195 Z M53.8386999,7.98444665 C53.7330415,7.72341453 53.5822813,7.48608993 53.3943444,7.28494866 C53.2125941,7.09521229 53.0042341,6.93707936 52.776821,6.81628501 C52.5648118,6.70213266 52.3465989,6.60169104 52.1233571,6.51550088 C51.9077141,6.43505861 51.6888037,6.35811383 51.4698933,6.29166152 C51.2925482,6.23558722 51.1189783,6.16664359 50.9503895,6.08530962 C50.8281126,6.03422238 50.7169142,5.95685162 50.6236575,5.85797277 C50.5697523,5.79816049 50.5413688,5.71713891 50.5452418,5.63413342 C50.5354968,5.47532718 50.5945383,5.32054982 50.7053405,5.21443463 C50.8765803,5.08869056 51.0833306,5.03057989 51.2901907,5.0500526 C51.4397764,5.0478436 51.5887166,5.07146322 51.7312788,5.1200024 C51.8572607,5.16396975 51.9796528,5.21894891 52.0972186,5.28438443 L52.4239505,5.46975139 C52.5401262,5.54241486 52.671703,5.58214062 52.8062269,5.58516856 C52.9398886,5.58760425 53.0710327,5.54609981 53.1819686,5.4662539 C53.2752623,5.38968339 53.3540051,5.29470887 53.4139483,5.18645471 L53.9595907,4.09174037 L53.8190959,3.95184077 C53.6607209,3.79869521 53.4876829,3.66387745 53.3028595,3.54962943 C53.1088629,3.43059863 52.9055146,3.32995396 52.695138,3.24884529 C52.4730276,3.16576067 52.2445252,3.10373303 52.0122683,3.06347833 C51.7703094,3.02126098 51.5255406,3.00020645 51.2803887,3.00052351 C50.8625211,2.9928897 50.4469926,3.06880239 50.0551439,3.22436286 C49.7163087,3.36360933 49.405701,3.57141485 49.1402945,3.8364236 C48.8960034,4.08446175 48.7014571,4.38315372 48.5685136,4.71429357 C48.4395566,5.03464465 48.3728566,5.37973889 48.3724744,5.72856565 C48.3636254,6.09570922 48.4201773,6.46129777 48.5391077,6.80579254 C48.6401935,7.0828832 48.7911738,7.33600286 48.9834632,7.5507579 C49.1613918,7.74809131 49.3704335,7.91029348 49.6009865,8.02991401 C49.8122548,8.1427837 50.0306033,8.2397818 50.2544504,8.32020568 C50.4733608,8.39365297 50.6890039,8.46360276 50.9079143,8.52306009 C51.083776,8.57268209 51.2553825,8.63820407 51.4208835,8.71891953 C51.5369275,8.77236596 51.6406401,8.85234724 51.7247442,8.95325135 C51.7882325,9.03546245 51.8198111,9.1406282 51.8129618,9.24704051 C51.8325662,9.43956738 51.7673516,9.63089511 51.6365265,9.76466902 C51.4588333,9.89016182 51.2478038,9.95031883 51.0353398,9.93604602 C50.853081,9.9403177 50.6715868,9.90951725 50.4994994,9.84511128 C50.3505275,9.7853529 50.2062983,9.71283658 50.0682132,9.62826691 L49.7055408,9.39043759 C49.5701074,9.29664768 49.4126746,9.24572694 49.2513833,9.24354302 C49.1274202,9.24310731 49.0055983,9.27812317 48.8985128,9.34497022 C48.8016582,9.40424762 48.7180351,9.48540707 48.6534639,9.58279954 L48,10.6775139 L48.1437621,10.827906 C48.3189903,11.0144591 48.5154895,11.176622 48.7286122,11.3105596 C48.9494414,11.4558276 49.1824267,11.5787704 49.4245513,11.677796 C49.6737256,11.7802433 49.9305924,11.8598068 50.1923713,11.9156253 C50.4505753,11.9709041 50.7132111,11.9990178 50.976528,11.9995651 C51.4076931,12.0065955 51.8363643,11.9283387 52.2409806,11.7687307 C52.5978776,11.6249927 52.923628,11.4048248 53.1983052,11.1216951 C53.457807,10.8476304 53.6613994,10.518942 53.7962247,10.1563879 C53.9322812,9.78303806 54.0010182,9.38547282 53.9987985,8.98472876 C54.0089679,8.64543291 53.9544953,8.30747307 53.8386999,7.99144163 L53.8386999,7.98444665 Z M13.9973894,3.39064788 C14.0108807,3.2832083 13.9715852,3.17585112 13.8910114,3.10001823 C13.8104375,3.02418533 13.6977037,2.98845853 13.5858264,3.00330121 L12.9229551,3.00330121 C11.1018801,3.00330121 9.0003595,4.22117497 9.0003595,6.31145114 L9.0003595,11.5144591 C8.99512298,11.6451909 9.0472869,11.772046 9.1441856,11.8642233 C9.24108429,11.9564005 9.37385508,12.0054691 9.5102605,11.9995149 C9.64607938,12.0043291 9.77792004,11.9550647 9.87447551,11.8634201 C9.96533709,11.7684842 10.0137202,11.6431957 10.0092351,11.5144591 L10.0092351,6.56968226 C10.0003501,6.09618149 10.126263,5.62930687 10.3734501,5.21920333 C10.6202391,4.81920692 10.9784071,4.49295645 11.4078207,4.27700873 C11.8734773,4.0419493 12.393019,3.92200177 12.9193129,3.92804776 L13.9791786,3.92804776 L13.9973894,3.39064788 Z M20.0859031,3.55807237 C19.4651149,3.18198051 18.7555166,2.98909759 18.0350665,3.00061424 C17.2988238,2.98747721 16.573555,3.18529491 15.9404517,3.57192226 C15.327729,3.95655128 14.8328599,4.5109715 14.5126115,5.17158471 C14.1625986,5.89608314 13.9870472,6.6964573 14.0007442,7.50529141 C13.9880344,8.3129831 14.1770265,9.11052703 14.5496545,9.82168574 C14.9011593,10.4878638 15.4258128,11.0404927 16.065051,11.4178857 C16.7333922,11.8096139 17.4914584,12.0104499 18.2606922,11.9995812 C19.164973,11.9720419 20.0440344,11.6867447 20.7998233,11.1755126 C20.9086841,11.098767 21.0122068,11.0143086 21.1096377,10.9227521 L21.523846,10.5765048 L21.2106641,10.1713955 C21.1549071,10.0881543 21.0665587,10.0341184 20.9688043,10.0234683 C20.8710499,10.0128183 20.7736497,10.0466174 20.7021644,10.1159959 L20.5270519,10.2579573 L20.4630685,10.3029695 L20.4091877,10.3549066 L20.250913,10.4830181 C20.0152921,10.6527695 19.7565627,10.7857808 19.4831121,10.87774 C19.0868303,11.0200312 18.6703357,11.0937438 18.2505896,11.0958757 C17.676882,11.1037954 17.1108784,10.9594984 16.6072262,10.6769165 C16.1182142,10.4041808 15.710735,9.99958009 15.4285845,9.50660071 C15.1312389,8.99030399 14.9634385,8.40608049 14.94029,7.80652655 L14.94029,6.96514565 C15.0127748,6.12822829 15.3705993,5.34457808 15.9505544,4.7526255 C16.5006369,4.19857557 17.2450268,3.89642186 18.0148612,3.91470707 C18.7979051,3.88907503 19.5575052,4.19148283 20.1195786,4.7526255 C20.6885337,5.34531246 21.0243543,6.13330618 21.062492,6.96514565 L18.9342018,6.96514565 C18.7482172,6.96514565 18.597447,7.12016584 18.597447,7.31139293 L18.597447,7.80306407 L21.5373162,7.80306407 C21.6606737,7.80958623 21.7815937,7.76607126 21.874071,7.68187752 C21.9629963,7.59084531 22.0085519,7.46425153 21.9986703,7.33563024 C22.0114969,6.55689547 21.8392572,5.78671147 21.4969057,5.09194784 C21.1691679,4.45571626 20.6744994,3.92671148 20.0690654,3.56499732 L20.0859031,3.55807237 Z M35.5871483,10.3635578 C35.1855576,9.94462731 34.9715081,9.37835688 34.9947366,8.79632596 L34.9947366,4.14083002 L36.8178132,4.14083002 C36.9155335,4.14774115 37.0117026,4.11337311 37.0832728,4.04596246 C37.1548429,3.97855181 37.1953634,3.88417447 37.1951231,3.78544865 L37.1951231,3.25593041 L34.9912103,3.25593041 L34.9912103,0.555032002 C34.9952418,0.511295792 34.9952418,0.467277105 34.9912103,0.423540895 C34.9995141,0.310275942 34.958975,0.198899586 34.8799671,0.117913181 C34.8009591,0.0369267768 34.6911492,-0.00581079518 34.5786378,0.000637065562 L34.0003311,0.000637065562 L34.0003311,8.82120266 C33.9923646,9.39104895 34.1282676,9.95358331 34.3952723,10.455957 C34.6525942,10.9278636 35.0330414,11.3198859 35.4954655,11.5896235 C35.926605,11.8371752 36.410206,11.9772969 36.9059697,11.9983121 L37.5724329,11.9983121 C37.6866397,12.0089883 37.7997458,11.9686431 37.8818604,11.8879387 C37.963975,11.8072343 38.0068338,11.6942929 37.9991104,11.5789621 L37.9991104,10.989029 L37.0822827,10.989029 C36.5198398,10.9962277 35.9791989,10.7700572 35.5871483,10.3635578 Z M29.8005938,3.58693878 C28.3713354,2.80435374 26.6419448,2.80435374 25.2126864,3.58693878 C24.5327087,3.96774834 23.9702838,4.52799035 23.5867237,5.20659069 C22.8044254,6.63637306 22.8044254,8.36639765 23.5867237,9.79618002 C23.9665339,10.4732173 24.5255407,11.032429 25.2023299,11.4123785 C25.9042004,11.8089608 26.6989131,12.0115855 27.504914,11.9994592 C28.2253655,12.0108449 28.9372799,11.8422967 29.576204,11.5090742 C30.1735419,11.2002111 30.6767505,10.7361828 31.0330114,10.1656955 L31.0330114,11.4227388 L31.0330114,11.4469127 C31.0236923,11.5563581 31.0626255,11.6644157 31.1396005,11.7427465 C31.2165754,11.8210773 31.3239122,11.8618661 31.4334608,11.8544157 L31.9996134,11.8544157 L31.9996134,7.5100189 C32.0100859,6.70391776 31.8076432,5.9093368 31.4127479,5.20659069 C31.0316998,4.53077132 30.4745309,3.9710111 29.8005938,3.58693878 Z M30.5453879,9.29399901 C30.2544397,9.81742444 29.8210943,10.2511423 29.293723,10.5467396 C28.1831647,11.1510868 26.8339586,11.1510868 25.7234003,10.5467396 C25.1955766,10.2494856 24.7604244,9.81632637 24.4648957,9.29399901 C23.8450348,8.18180073 23.8450348,6.83605447 24.4648957,5.72385619 C25.4490691,4.07279211 27.6050844,3.51045888 29.293723,4.46439848 C29.81919,4.76539601 30.2517499,5.20064907 30.5453879,5.72385619 C31.1515374,6.83946047 31.1515374,8.17839473 30.5453879,9.29399901 Z" id="Shape" fill="#223464"></path>
                </g>
            </g>
        </g>
    </g>
</svg>